custom-analysis
version=1
nRows=18
nColumns=38
inDegrees=no

This file contains tibia displacement and acting force.

Units are S.I. units (seconds, meters, Newtons, ...)
Angles are in degrees.

endheader
time	APT	SIT	knee_angle	aACL_R_force	pACL_R_force	aPCL_R_force	pPCL_R_force	aMCL_R_force	aLCL_R_force	aPCL_L_force	pPCL_L_force	aMCL_L_force	aLCL_L_force	aACL_R_length	pACL_R_length	aPCL_R_length	pPCL_R_length	aMCL_R_length	aLCL_R_length	aPCL_L_length	pPCL_L_length	aMCL_L_length	aLCL_L_length	aACL_R_strain	pACL_R_strain	aPCL_R_strain	pPCL_R_strain	aMCL_R_strain	aLCL_R_strain	aPCL_L_strain	pPCL_L_strain	aMCL_L_strain	aLCL_L_strain	femur_lat_meniscii_force_r	femur_med_meniscii_force_r	femur_lat_tibia_force_r	femur_med_tibia_force_r
      0.00000000	      0.00000000	      0.00000000	      1.66574369	    275.29385960	    388.39173622	      0.00000000	    347.95306591	      1.35652550	   1303.25827576	      0.32189536	   2648.00691844	    129.61505198	    527.44014571	      0.03842843	      0.03062148	      0.02538015	      0.02718154	      0.07425932	      0.06233587	      0.02702386	      0.03369366	      0.07928817	      0.05733375	      0.21352924	      0.27274484	     -0.05231316	      0.10544931	      0.00777747	      0.17415895	      0.00906246	      0.37029145	      0.07602428	      0.07993889	      0.00000000	      0.00000000	      0.00000000	      0.00000000
      0.00000000	      0.00000000	      0.00000000	      1.66574369	    275.29385960	    388.39173622	      0.00000000	    347.95306591	      1.35652550	   1303.25827576	      0.32189536	   2648.00691844	    129.61505198	    527.44014571	      0.03842843	      0.03062148	      0.02538015	      0.02718154	      0.07425932	      0.06233587	      0.02702386	      0.03369366	      0.07928817	      0.05733375	      0.21352924	      0.27274484	     -0.05231316	      0.10544931	      0.00777747	      0.17415895	      0.00906246	      0.37029145	      0.07602428	      0.07993889	      0.00000000	      0.00000000	      0.00000000	      0.00000000
      0.00000000	      0.00000000	      0.00000000	      1.66574369	    275.29385960	    388.39173622	      0.00000000	    347.95306591	      1.35652550	   1303.25827576	      0.32189536	   2648.00691844	    129.61505198	    527.44014571	      0.03842843	      0.03062148	      0.02538015	      0.02718154	      0.07425932	      0.06233587	      0.02702386	      0.03369366	      0.07928817	      0.05733375	      0.21352924	      0.27274484	     -0.05231316	      0.10544931	      0.00777747	      0.17415895	      0.00906246	      0.37029145	      0.07602428	      0.07993889	      0.00000000	      0.00000000	      0.00000000	      0.00000000
      0.00000000	      0.00000000	      0.00000000	      1.66574369	    275.29385960	    388.39173622	      0.00000000	    347.95306590	      1.35652549	   1303.25827576	      0.32189536	   2648.00691844	    129.61505197	    527.44014571	      0.03842843	      0.03062148	      0.02538015	      0.02718154	      0.07425932	      0.06233587	      0.02702386	      0.03369366	      0.07928817	      0.05733375	      0.21352924	      0.27274484	     -0.05231316	      0.10544931	      0.00777747	      0.17415895	      0.00906246	      0.37029145	      0.07602428	      0.07993889	      0.00000000	      0.00000000	      0.00000000	      0.00000000
      0.00000000	      0.00000000	      0.00000000	      1.66574369	    275.29385960	    388.39173621	      0.00000000	    347.95306590	      1.35652549	   1303.25827575	      0.32189536	   2648.00691843	    129.61505197	    527.44014570	      0.03842843	      0.03062148	      0.02538015	      0.02718154	      0.07425932	      0.06233587	      0.02702386	      0.03369366	      0.07928817	      0.05733375	      0.21352924	      0.27274484	     -0.05231316	      0.10544931	      0.00777747	      0.17415895	      0.00906246	      0.37029145	      0.07602428	      0.07993889	      0.00000000	      0.00000000	      0.00000000	      0.00000000
      0.00000000	      0.00000000	      0.00000000	      1.66574369	    275.29385959	    388.39173621	      0.00000000	    347.95306586	      1.35652546	   1303.25827571	      0.32189534	   2648.00691840	    129.61505194	    527.44014566	      0.03842843	      0.03062148	      0.02538015	      0.02718154	      0.07425932	      0.06233587	      0.02702386	      0.03369366	      0.07928817	      0.05733375	      0.21352924	      0.27274484	     -0.05231316	      0.10544931	      0.00777747	      0.17415895	      0.00906246	      0.37029145	      0.07602428	      0.07993889	      0.00000000	      0.00000000	      0.00000000	      0.00000000
      0.00000000	      0.00000000	      0.00000000	      1.66574369	    275.29385955	    388.39173616	      0.00000000	    347.95306566	      1.35652532	   1303.25827551	      0.32189527	   2648.00691824	    129.61505179	    527.44014547	      0.03842843	      0.03062148	      0.02538015	      0.02718154	      0.07425932	      0.06233587	      0.02702386	      0.03369366	      0.07928817	      0.05733375	      0.21352924	      0.27274484	     -0.05231316	      0.10544931	      0.00777747	      0.17415895	      0.00906246	      0.37029145	      0.07602428	      0.07993889	      0.00000000	      0.00000000	      0.00000000	      0.00000000
      0.00000000	      0.00000000	      0.00000000	      1.66574369	    275.29385933	    388.39173595	      0.00000000	    347.95306467	      1.35652462	   1303.25827452	      0.32189493	   2648.00691747	    129.61505107	    527.44014453	      0.03842843	      0.03062148	      0.02538015	      0.02718154	      0.07425932	      0.06233587	      0.02702386	      0.03369366	      0.07928817	      0.05733375	      0.21352924	      0.27274484	     -0.05231316	      0.10544931	      0.00777747	      0.17415895	      0.00906246	      0.37029145	      0.07602428	      0.07993889	      0.00000000	      0.00000000	      0.00000000	      0.00000000
      0.00000000	      0.00000000	      0.00000000	      1.66574369	    275.29385824	    388.39173488	      0.00000000	    347.95305980	      1.35652119	   1303.25826963	      0.32189324	   2648.00691363	    129.61504751	    527.44013987	      0.03842843	      0.03062148	      0.02538015	      0.02718154	      0.07425932	      0.06233587	      0.02702386	      0.03369366	      0.07928817	      0.05733375	      0.21352924	      0.27274484	     -0.05231316	      0.10544931	      0.00777747	      0.17415895	      0.00906246	      0.37029145	      0.07602428	      0.07993889	      0.00000000	      0.00000000	      0.00000000	      0.00000000
      0.00000000	      0.00000000	      0.00000000	      1.66574369	    275.29385289	    388.39172963	      0.00000000	    347.95303591	      1.35650432	   1303.25824561	      0.32188493	   2648.00689478	    129.61503004	    527.44011698	      0.03842843	      0.03062148	      0.02538015	      0.02718154	      0.07425932	      0.06233587	      0.02702386	      0.03369366	      0.07928817	      0.05733375	      0.21352924	      0.27274484	     -0.05231316	      0.10544931	      0.00777747	      0.17415895	      0.00906246	      0.37029145	      0.07602428	      0.07993889	      0.00000000	      0.00000000	      0.00000000	      0.00000000
      0.00000000	      0.00000000	      0.00000000	      1.66574369	    275.29382703	    388.39170428	      0.00000000	    347.95292038	      1.35642276	   1303.25812953	      0.32184476	   2648.00680366	    129.61494557	    527.44000633	      0.03842843	      0.03062148	      0.02538015	      0.02718154	      0.07425932	      0.06233587	      0.02702386	      0.03369366	      0.07928817	      0.05733375	      0.21352924	      0.27274484	     -0.05231316	      0.10544931	      0.00777747	      0.17415895	      0.00906246	      0.37029145	      0.07602428	      0.07993889	      0.00000000	      0.00000000	      0.00000000	      0.00000000
      0.00000000	      0.00000000	      0.00000000	      1.66574369	    275.29370856	    388.39158814	      0.00000000	    347.95239109	      1.35604908	   1303.25759768	      0.32166072	   2648.00638617	    129.61455856	    527.43949940	      0.03842843	      0.03062148	      0.02538015	      0.02718154	      0.07425932	      0.06233587	      0.02702386	      0.03369366	      0.07928817	      0.05733375	      0.21352924	      0.27274484	     -0.05231316	      0.10544931	      0.00777747	      0.17415895	      0.00906246	      0.37029145	      0.07602428	      0.07993889	      0.00000000	      0.00000000	      0.00000000	      0.00000000
      0.00000000	      0.00000000	      0.00000000	      1.66574369	    275.29316915	    388.39105937	      0.00000000	    347.94998126	      1.35434777	   1303.25517622	      0.32082281	   2648.00448540	    129.61279652	    527.43719139	      0.03842843	      0.03062148	      0.02538015	      0.02718154	      0.07425932	      0.06233587	      0.02702386	      0.03369366	      0.07928817	      0.05733375	      0.21352924	      0.27274484	     -0.05231316	      0.10544931	      0.00777747	      0.17415895	      0.00906246	      0.37029145	      0.07602428	      0.07993889	      0.00000000	      0.00000000	      0.00000000	      0.00000000
      0.00000000	      0.00000000	      0.00000000	      1.66574369	    275.29075390	    388.38869170	      0.00000000	    347.93919077	      1.34672987	   1303.24433360	      0.31707086	   2647.99597431	    129.60490674	    527.42685680	      0.03842843	      0.03062148	      0.02538015	      0.02718154	      0.07425932	      0.06233587	      0.02702386	      0.03369366	      0.07928817	      0.05733375	      0.21352924	      0.27274484	     -0.05231316	      0.10544931	      0.00777747	      0.17415895	      0.00906246	      0.37029145	      0.07602428	      0.07993889	      0.00000000	      0.00000000	      0.00000000	      0.00000000
      0.00000000	      0.00000000	      0.00000000	      1.66574369	    275.28026243	    388.37840690	      0.00000000	    347.89231513	      1.31363735	   1303.19723090	      0.30077116	   2647.95900084	    129.57063359	    527.38196148	      0.03842843	      0.03062148	      0.02538015	      0.02718154	      0.07425932	      0.06233587	      0.02702386	      0.03369366	      0.07928817	      0.05733375	      0.21352924	      0.27274484	     -0.05231316	      0.10544931	      0.00777747	      0.17415895	      0.00906246	      0.37029145	      0.07602428	      0.07993889	      0.00000000	      0.00000000	      0.00000000	      0.00000000
      0.00000001	      0.00000000	      0.00000000	      1.66574369	    275.23499329	    388.33402922	      0.00000000	    347.68998917	      1.17081931	   1302.99391344	      0.23040673	   2647.79941624	    129.42272772	    527.18817958	      0.03842843	      0.03062148	      0.02538015	      0.02718154	      0.07425932	      0.06233587	      0.02702386	      0.03369366	      0.07928817	      0.05733375	      0.21352924	      0.27274484	     -0.05231316	      0.10544931	      0.00777747	      0.17415895	      0.00906246	      0.37029145	      0.07602428	      0.07993889	      0.00000000	      0.00000000	      0.00000000	      0.00000000
      0.00000006	      0.00000000	      0.00000000	      1.66574369	    275.04389585	    388.14668986	      0.00000000	    346.83477694	      0.56743419	   1302.13431098	     -0.06721463	   2647.12488258	    128.79797667	    526.36902036	      0.03842843	      0.03062148	      0.02538015	      0.02718154	      0.07425932	      0.06233587	      0.02702386	      0.03369366	      0.07928817	      0.05733375	      0.21352924	      0.27274483	     -0.05231316	      0.10544931	      0.00777747	      0.17415895	      0.00906246	      0.37029145	      0.07602428	      0.07993889	      0.00000000	      0.00000000	      0.00000000	      0.00000000
      0.00000024	      0.00000000	      0.00000000	      1.66574374	    274.27380342	    387.39168057	      0.00000000	    343.37181840	     -1.87144128	   1298.65062846	     -1.27542443	   2644.39328530	    126.27458086	    523.05102649	      0.03842843	      0.03062148	      0.02538015	      0.02718154	      0.07425932	      0.06233587	      0.02702386	      0.03369366	      0.07928817	      0.05733375	      0.21352923	      0.27274482	     -0.05231318	      0.10544928	      0.00777747	      0.17415894	      0.00906244	      0.37029143	      0.07602427	      0.07993888	      0.00000000	      0.00000000	      0.00000000	      0.00000000
